<?xml version="1.0" encoding="UTF-8" standalone="no"?>
<svg
   xmlns:dc="http://purl.org/dc/elements/1.1/"
   xmlns:cc="http://creativecommons.org/ns#"
   xmlns:rdf="http://www.w3.org/1999/02/22-rdf-syntax-ns#"
   xmlns:svg="http://www.w3.org/2000/svg"
   xmlns="http://www.w3.org/2000/svg"
   id="svg92"
   version="1.1"
   fill="none"
   viewBox="0 0 16 16"
   height="16"
   width="16">
  <metadata
     id="metadata98">
    <rdf:RDF>
      <cc:Work
         rdf:about="">
        <dc:format>image/svg+xml</dc:format>
        <dc:type
           rdf:resource="http://purl.org/dc/dcmitype/StillImage" />
        <dc:title></dc:title>
      </cc:Work>
    </rdf:RDF>
  </metadata>
  <defs
     id="defs96" />
  <path
     style="fill:#f48a4e;fill-opacity:1"
     id="path90"
     fill="#89d185"
     d="m 8,1 c 0.64258,0 1.26237,0.08431 1.85938,0.25293 0.59702,0.16406 1.15522,0.39876 1.67482,0.7041 0.5195,0.30078 0.9912,0.66537 1.415,1.09375 0.4284,0.42383 0.793,0.89551 1.0938,1.41504 0.3053,0.51953 0.54,1.0778 0.7041,1.6748 C 14.9157,6.73763 15,7.35742 15,8 15,8.64258 14.9157,9.26237 14.7471,9.85938 14.583,10.4564 14.3483,11.0146 14.043,11.5342 c -0.3008,0.5195 -0.6654,0.9935 -1.0938,1.4219 -0.4238,0.4238 -0.8955,0.7884 -1.415,1.0937 -0.5196,0.3008 -1.0778,0.5355 -1.67482,0.7041 C 9.26237,14.918 8.64258,15 8,15 7.35742,15 6.73763,14.918 6.14062,14.7539 5.54362,14.5853 4.98535,14.3506 4.46582,14.0498 3.94629,13.7445 3.47233,13.3799 3.04395,12.9561 2.62012,12.5277 2.25553,12.0537 1.9502,11.5342 1.64941,11.0146 1.41471,10.4587 1.24609,9.86621 1.08203,9.26921 1,8.64714 1,8 1,7.35742 1.08203,6.73763 1.24609,6.14062 1.41471,5.54362 1.64941,4.98535 1.9502,4.46582 2.25553,3.94629 2.62012,3.47461 3.04395,3.05078 3.47233,2.6224 3.94629,2.25781 4.46582,1.95703 4.98535,1.65169 5.54134,1.41699 6.13379,1.25293 6.73079,1.08431 7.35286,1 8,1 Z m 0,13.125 c 0.56055,0 1.10059,-0.0729 1.62012,-0.2188 0.52408,-0.1458 1.01168,-0.3509 1.46288,-0.6152 0.4557,-0.2689 0.8705,-0.5902 1.2441,-0.9639 0.3737,-0.3736 0.6928,-0.7861 0.9571,-1.2373 0.2689,-0.4557 0.4762,-0.9433 0.622,-1.46285 C 14.0521,9.10742 14.125,8.5651 14.125,8 14.125,7.43945 14.0521,6.89941 13.9062,6.37988 13.7604,5.85579 13.5531,5.36816 13.2842,4.91699 13.0199,4.46126 12.7008,4.04655 12.3271,3.67285 11.9535,3.29915 11.5387,2.98014 11.083,2.71582 10.6318,2.44694 10.1442,2.23958 9.62012,2.09375 9.10059,1.94792 8.56055,1.875 8,1.875 7.43945,1.875 6.89714,1.94792 6.37305,2.09375 5.85352,2.23958 5.36589,2.44694 4.91016,2.71582 4.45898,2.98014 4.04655,3.29915 3.67285,3.67285 3.29915,4.04655 2.97786,4.46126 2.70898,4.91699 2.44466,5.36816 2.23958,5.85579 2.09375,6.37988 1.94792,6.89941 1.875,7.43945 1.875,8 c 0,0.56055 0.07292,1.10286 0.21875,1.62695 0.14583,0.51955 0.35091,1.00715 0.61523,1.46285 0.26888,0.4512 0.59017,0.8637 0.96387,1.2373 0.3737,0.3737 0.78613,0.695 1.23731,0.9639 0.45573,0.2643 0.94336,0.4694 1.46289,0.6152 C 6.89258,14.0521 7.4349,14.125 8,14.125 Z" />
  <rect
     y="7.431221"
     x="3.5"
     height="1.1375577"
     width="9"
     id="rect100"
     style="fill:#f48a4e;fill-opacity:1;fill-rule:evenodd" />
</svg>
